<?xml version="1.0" encoding="UTF-8"?>
<svg width="400" height="400" viewBox="0 0 400 400" fill="none" xmlns="http://www.w3.org/2000/svg">
  <!-- Background circle -->
  <circle cx="200" cy="200" r="180" fill="#F3F4F6" opacity="0.5"/>
  
  <!-- Wallet base -->
  <path d="M100 140C100 128.954 108.954 120 120 120H280C291.046 120 300 128.954 300 140V280C300 291.046 291.046 300 280 300H120C108.954 300 100 291.046 100 280V140Z" fill="#E5E7EB"/>
  
  <!-- Wallet flap -->
  <path d="M90 160C90 148.954 98.9543 140 110 140H290C301.046 140 310 148.954 310 160V170C310 181.046 301.046 190 290 190H110C98.9543 190 90 181.046 90 170V160Z" fill="#D1811F" fill-opacity="0.5"/>
  
  <!-- Coins -->
  <circle cx="160" cy="220" r="25" fill="#FFB800" opacity="0.7"/>
  <circle cx="160" cy="220" r="20" fill="#FFD700"/>
  <text x="150" cy="227" fill="#B7791F" font-family="Arial" font-size="20" font-weight="bold">₹</text>
  
  <circle cx="200" cy="250" r="25" fill="#FFB800" opacity="0.7"/>
  <circle cx="200" cy="250" r="20" fill="#FFD700"/>
  <text x="190" cy="257" fill="#B7791F" font-family="Arial" font-size="20" font-weight="bold">₹</text>
  
  <circle cx="240" cy="220" r="25" fill="#FFB800" opacity="0.7"/>
  <circle cx="240" cy="220" r="20" fill="#FFD700"/>
  <text x="230" cy="227" fill="#B7791F" font-family="Arial" font-size="20" font-weight="bold">₹</text>
  
  <!-- Dotted lines representing empty space -->
  <path d="M140 260H260" stroke="#D1D5DB" stroke-width="4" stroke-linecap="round" stroke-dasharray="8 8"/>
  <path d="M160 280H240" stroke="#D1D5DB" stroke-width="4" stroke-linecap="round" stroke-dasharray="8 8"/>
  
  <!-- Plus icon -->
  <circle cx="280" cy="120" r="30" fill="#3B82F6" opacity="0.1"/>
  <path d="M270 120H290M280 110V130" stroke="#3B82F6" stroke-width="4" stroke-linecap="round"/>
</svg>
